<svg width="512" height="512" viewBox="0 0 512 512" fill="none" xmlns="http://www.w3.org/2000/svg">
<g clip-path="url(#clip0_955_3563)">
<path d="M422 0H90C40.2944 0 0 40.2944 0 90V422C0 471.706 40.2944 512 90 512H422C471.706 512 512 471.706 512 422V90C512 40.2944 471.706 0 422 0Z" fill="#FF6719"/>
<path d="M105.656 327.268C98.997 327.268 93.3897 324.462 88.8338 318.849C84.2779 313.237 82 306.222 82 297.803C82 289.034 85.855 278.511 93.565 266.234C101.275 253.957 110.562 242.557 121.426 232.034C144.556 210.637 165.057 194.151 182.931 182.575L194.495 174.683C200.103 172.228 205.885 171 211.843 171C218.151 171 223.758 173.105 228.665 177.314C233.571 181.172 236.024 185.732 236.024 190.994C236.024 196.255 235.148 200.991 233.396 205.2C231.644 209.409 229.716 212.742 227.613 215.197C222.006 223.265 218.677 228 217.625 229.403C216.574 230.455 216.048 231.683 216.048 233.086C216.048 234.138 216.749 234.665 218.151 234.665C219.903 234.665 227.263 229.578 240.23 219.406C278.779 187.837 306.465 172.052 323.287 172.052C329.946 172.052 335.553 174.157 340.109 178.366C345.015 182.225 347.468 186.609 347.468 191.52C347.468 196.431 346.417 200.815 344.314 204.674C342.211 208.182 339.233 212.215 335.378 216.775C329.069 224.142 325.915 228.702 325.915 230.455C325.915 231.858 327.142 232.56 329.595 232.56C332.399 232.56 343.788 224.492 363.764 208.357C383.74 192.222 397.583 184.154 405.293 184.154C413.003 184.154 418.961 187.311 423.166 193.625C427.722 199.588 430 205.726 430 212.04C430 218.354 421.063 232.911 403.19 255.711C385.317 278.16 376.381 290.963 376.381 294.12C376.381 297.277 377.607 298.855 380.06 298.855C382.163 298.505 384.616 297.452 387.42 295.698C390.224 293.945 392.852 293.068 395.305 293.068C399.861 293.068 402.139 294.997 402.139 298.855C402.139 310.431 395.656 320.603 382.689 329.372C369.722 337.791 356.58 342 343.263 342C315.227 342 301.208 329.723 301.208 305.169C301.208 300.258 302.61 294.12 305.414 286.754C308.568 279.388 311.722 274.126 314.876 270.969C315.927 268.865 316.453 267.462 316.453 266.76C316.453 265.708 315.752 265.182 314.35 265.182C313.299 265.182 311.897 265.708 310.145 266.76C308.393 267.462 300.858 273.775 287.541 285.702C251.094 318.323 226.036 334.634 212.369 334.634C205.009 334.634 199.402 332.003 195.547 326.742C191.692 321.129 189.764 315.342 189.764 309.378C189.764 298.505 195.021 286.578 205.535 273.6C206.586 271.846 207.112 270.268 207.112 268.865C207.112 267.111 206.411 266.234 205.009 266.234C203.607 266.234 202.03 266.935 200.278 268.338C151.915 307.625 120.375 327.268 105.656 327.268Z" fill="white"/>
</g>
<defs>
<clipPath id="clip0_955_3563">
<rect width="512" height="512" fill="white"/>
</clipPath>
</defs>
</svg>
